<?xml version="1.0" standalone="no"?>
<!DOCTYPE svg PUBLIC "-//W3C//DTD SVG 20010904//EN"
 "http://www.w3.org/TR/2001/REC-SVG-20010904/DTD/svg10.dtd">
<svg version="1.0" xmlns="http://www.w3.org/2000/svg"
 width="632.000000pt" height="395.000000pt" viewBox="0 0 632.000000 395.000000"
 preserveAspectRatio="xMidYMid meet">

<g transform="translate(0.000000,395.000000) scale(0.100000,-0.100000)"
fill="#000000" stroke="none">
<path d="M4205 3203 c4 -10 16 -41 27 -70 16 -42 25 -53 47 -55 14 -2 -13 -8
-61 -12 -47 -5 -91 -5 -97 -2 -7 5 -1 25 17 59 37 72 38 75 12 52 -35 -31 -87
-116 -115 -190 -14 -37 -25 -71 -25 -75 0 -5 20 -16 45 -26 25 -9 45 -22 45
-28 0 -7 -23 -20 -50 -30 -60 -22 -70 -37 -70 -110 0 -51 3 -57 34 -81 19 -15
58 -33 86 -40 47 -12 55 -12 124 12 l73 25 51 -26 c28 -14 58 -26 67 -26 19 0
97 69 90 81 -3 4 -11 6 -18 4 -7 -2 -55 -6 -107 -9 l-95 -6 9 79 c9 79 9 80
-27 160 -20 44 -37 84 -37 88 1 4 23 25 49 46 37 28 59 37 88 37 52 0 67 12
59 44 -5 20 -3 26 11 27 10 1 0 5 -22 10 -21 5 -45 7 -52 5 -7 -3 -13 -2 -13
3 0 5 -8 11 -17 14 -10 3 -44 17 -77 31 -51 23 -58 24 -51 9z"/>
<path d="M3150 3056 c-22 -48 -40 -90 -40 -94 0 -5 14 -21 30 -37 17 -16 30
-34 30 -41 0 -6 7 -17 15 -24 22 -18 18 -30 -7 -30 -20 0 -27 -13 -54 -97
l-31 -96 -79 2 c-44 1 -102 4 -131 7 l-52 6 -32 137 c-17 75 -33 139 -35 143
-3 4 36 34 86 68 49 34 90 66 90 70 0 7 -95 -8 -166 -25 -18 -4 -30 -29 -65
-136 l-44 -131 60 -55 c33 -30 78 -70 101 -88 l41 -35 79 14 79 14 44 -36 c24
-21 55 -46 69 -58 l25 -20 -27 -42 c-14 -23 -32 -62 -38 -88 -16 -57 -39 -71
-100 -58 -37 8 -61 4 -170 -28 -115 -33 -136 -43 -215 -101 -48 -35 -118 -81
-155 -101 -45 -25 -68 -44 -68 -56 0 -9 20 -60 45 -112 55 -115 137 -349 121
-346 -6 1 -23 -1 -38 -5 -23 -6 -28 -13 -28 -37 0 -32 3 -34 41 -43 20 -5 33
0 54 19 19 17 31 22 38 15 7 -7 6 -15 -2 -25 -13 -15 -9 -28 16 -58 19 -21 39
-13 47 18 4 13 11 24 17 24 7 0 10 -28 8 -82 -4 -91 -10 -81 85 -120 l60 -24
71 -132 c66 -124 75 -136 122 -162 28 -16 53 -37 55 -47 3 -12 25 -24 58 -35
30 -10 55 -16 56 -15 1 1 16 46 33 100 18 53 37 97 42 97 5 0 9 -4 9 -10 0
-13 57 -13 65 0 3 5 -3 15 -14 22 -15 9 -17 15 -9 25 6 7 16 13 22 13 29 1 63
51 131 193 62 129 89 173 169 270 52 65 105 132 118 149 l23 33 -31 -22 c-22
-16 -34 -19 -42 -11 -7 7 -10 5 -9 -7 1 -10 -8 -21 -21 -26 l-23 -9 19 28 c11
15 31 38 43 52 31 34 62 81 56 86 -2 3 -60 -21 -128 -52 -77 -36 -139 -58
-164 -59 -22 -1 -48 -5 -57 -9 -10 -5 -36 -6 -58 -4 -22 2 -40 1 -40 -3 0 -3
-26 -13 -57 -22 -32 -9 -66 -19 -75 -22 -14 -6 -18 -2 -18 17 0 35 95 63 217
63 51 0 93 3 93 7 0 8 55 34 195 92 l100 42 -3 58 c-4 55 -2 59 28 85 29 23
31 30 22 48 -8 15 -18 20 -33 16 -16 -4 -17 -8 -7 -14 9 -6 9 -9 1 -9 -19 0
-33 34 -26 61 7 24 7 24 19 -6 7 -17 13 -24 14 -17 0 7 5 10 11 6 7 -4 10 -1
7 7 -3 8 -11 13 -18 11 -8 -2 -9 5 -5 19 5 14 4 19 -4 15 -7 -5 -9 -1 -5 8 3
9 10 14 14 11 5 -3 6 4 3 15 -3 13 -25 27 -61 40 -50 19 -62 20 -100 9 -24 -7
-50 -18 -58 -26 -12 -13 -24 -9 -89 26 -66 36 -82 41 -142 41 -59 0 -130 11
-170 25 -19 6 14 93 51 135 37 42 72 110 86 168 l11 42 54 0 c53 0 56 1 82 41
26 39 26 42 12 81 -8 22 -19 39 -23 39 -5 0 -18 -27 -29 -61 -14 -42 -24 -59
-34 -56 -7 3 -13 1 -13 -4 0 -17 -29 -11 -49 9 -11 11 -22 17 -25 13 -3 -3 -6
0 -6 6 0 15 17 16 25 2 4 -6 11 -7 17 -4 7 4 8 2 4 -4 -4 -7 -1 -12 7 -12 10
0 13 9 10 28 -3 25 -3 26 6 5 11 -24 26 -32 18 -10 -2 6 -1 22 4 34 6 18 1 28
-31 56 l-40 35 33 7 c19 4 26 9 17 12 -55 17 -200 88 -200 97 0 7 14 17 31 23
20 8 28 16 23 24 -4 8 -3 9 4 5 7 -4 12 -2 12 4 0 6 3 9 8 6 4 -2 23 8 42 24
l34 28 -54 11 c-30 7 -65 14 -77 18 -21 5 -27 -4 -63 -81z m68 -428 c-6 -18
-22 -20 -43 -3 -19 14 -18 14 13 15 22 0 32 -4 30 -12z m-30 -364 c0 -40 -2
-45 -14 -32 -11 11 -12 19 -2 46 7 18 13 32 14 32 1 0 2 -21 2 -46z m15 -99
c5 -28 4 -34 -3 -20 -8 19 -14 73 -6 64 2 -2 6 -22 9 -44z m-332 -85 c9 -10
29 -20 44 -22 35 -4 70 -47 61 -76 -9 -27 -38 -37 -52 -18 -9 13 -13 9 -23
-24 -9 -31 -17 -40 -34 -40 -55 1 -102 20 -143 61 l-42 42 36 54 36 55 51 -6
c31 -4 56 -14 66 -26z m453 -72 c-16 -23 -10 -53 14 -63 12 -5 22 -18 22 -27
0 -14 -8 -18 -36 -18 -20 0 -48 -8 -62 -18 -47 -33 -222 -123 -222 -115 0 10
32 95 59 153 20 45 20 45 113 72 109 31 124 33 112 16z m203 -370 c-3 -8 -6
-5 -6 6 -1 11 2 17 5 13 3 -3 4 -12 1 -19z"/>
<path d="M3315 1920 c3 -5 13 -10 21 -10 8 0 14 5 14 10 0 6 -9 10 -21 10 -11
0 -17 -4 -14 -10z"/>
<path d="M4422 2793 c-7 -2 -17 -14 -23 -26 -11 -21 -10 -20 15 2 14 14 26 26
26 28 0 3 0 3 -18 -4z"/>
<path d="M4323 2737 c-4 -6 -1 -7 7 -2 7 4 15 2 20 -4 5 -9 9 -9 18 1 8 10 5
13 -14 14 -13 1 -27 -3 -31 -9z"/>
<path d="M1752 2682 c3 -20 15 -53 27 -72 l21 -35 0 56 c0 41 -5 60 -18 72
-28 26 -35 21 -30 -21z"/>
<path d="M1561 2633 c-35 -43 -40 -58 -13 -44 12 6 22 7 28 1 6 -6 10 -2 11
10 1 11 -2 18 -7 15 -6 -3 -7 1 -3 10 4 12 8 13 13 5 5 -8 10 -9 14 -2 3 6 2
13 -4 17 -6 4 -8 11 -5 16 14 22 -6 6 -34 -28z"/>
<path d="M1600 2610 c0 -5 4 -10 9 -10 6 0 -2 -25 -16 -56 -14 -30 -23 -57
-21 -60 3 -2 25 9 49 26 24 16 48 30 52 30 5 0 -10 -23 -32 -51 -23 -29 -41
-55 -41 -60 0 -15 63 -80 92 -95 37 -19 44 -13 24 18 -9 14 -16 51 -17 97 -3
106 -7 116 -45 134 -19 9 -34 21 -34 27 0 5 -4 10 -10 10 -5 0 -10 -4 -10 -10z"/>
<path d="M1235 1980 c-3 -5 -1 -10 4 -10 6 0 11 5 11 10 0 6 -2 10 -4 10 -3 0
-8 -4 -11 -10z"/>
<path d="M4387 1746 c-67 -18 -83 -37 -91 -103 -8 -67 14 -144 47 -166 26 -16
151 -67 166 -67 17 0 14 14 -34 126 -43 99 -45 111 -39 165 4 33 5 59 3 58 -2
0 -25 -6 -52 -13z"/>
<path d="M4666 1731 c-10 -4 -30 -18 -45 -32 l-26 -24 29 -55 c17 -30 36 -60
45 -66 11 -9 12 -19 4 -53 -11 -41 -10 -43 15 -52 62 -24 71 -19 97 56 14 39
25 71 25 71 0 1 -29 25 -64 55 -56 46 -63 56 -55 76 10 26 2 33 -25 24z"/>
<path d="M2392 1671 c-8 -5 -12 -21 -10 -37 6 -56 78 -40 78 17 0 25 -4 29
-27 29 -16 0 -34 -4 -41 -9z"/>
<path d="M3752 1637 c-18 -22 -3 -57 24 -57 21 0 23 4 18 25 -4 17 -2 25 7 26
8 0 5 4 -6 9 -28 12 -31 12 -43 -3z"/>
<path d="M3786 1553 c-11 -11 -6 -23 9 -23 8 0 15 4 15 9 0 13 -16 22 -24 14z"/>
<path d="M2455 1410 c-7 -12 2 -30 16 -30 12 0 12 27 0 35 -5 3 -12 1 -16 -5z"/>
<path d="M2592 1316 c-27 -13 -39 -45 -21 -57 20 -13 31 -11 59 11 20 15 23
23 14 36 -13 22 -23 24 -52 10z m22 -35 c3 -5 -1 -11 -9 -15 -9 -3 -15 0 -15
9 0 16 16 20 24 6z"/>
<path d="M3464 1204 c-8 -33 7 -48 41 -40 25 6 26 9 12 24 -8 9 -12 23 -10 30
3 7 -4 12 -16 12 -14 0 -23 -8 -27 -26z"/>
<path d="M3453 1128 c-18 -13 -35 -30 -38 -38 -8 -19 24 -42 47 -34 28 8 39
-4 25 -27 -10 -17 -9 -22 7 -35 17 -12 22 -12 38 3 18 16 18 17 -2 38 -18 20
-19 23 -5 35 20 17 19 43 -3 63 -24 22 -31 21 -69 -5z"/>
<path d="M3381 1094 c0 -11 3 -14 6 -6 3 7 2 16 -1 19 -3 4 -6 -2 -5 -13z"/>
<path d="M2643 1093 c-18 -6 -16 -50 2 -57 22 -8 45 4 45 23 0 19 -29 40 -47
34z"/>
<path d="M2891 1042 c-13 -24 4 -52 33 -52 18 0 25 7 29 27 3 16 3 31 0 35 -9
15 -52 8 -62 -10z"/>
<path d="M2892 928 c-7 -7 -12 -25 -12 -40 0 -25 3 -28 35 -28 41 0 50 15 36
53 -11 29 -39 35 -59 15z"/>
<path d="M3450 933 c-56 -21 -27 -111 30 -96 43 11 55 57 22 86 -19 18 -27 19
-52 10z"/>
<path d="M2780 890 c0 -5 5 -10 10 -10 6 0 10 5 10 10 0 6 -4 10 -10 10 -5 0
-10 -4 -10 -10z"/>
<path d="M2957 862 c-34 -38 -10 -80 35 -63 34 13 43 39 22 62 -21 24 -36 24
-57 1z m53 -42 c0 -5 -4 -10 -9 -10 -6 0 -13 5 -16 10 -3 6 1 10 9 10 9 0 16
-4 16 -10z"/>
<path d="M3340 850 c0 -23 5 -30 19 -30 11 0 23 5 27 12 4 7 3 8 -4 4 -7 -4
-12 -3 -12 3 0 5 5 13 10 16 18 11 10 25 -15 25 -21 0 -25 -5 -25 -30z"/>
<path d="M3250 840 c0 -5 5 -10 10 -10 6 0 10 5 10 10 0 6 -4 10 -10 10 -5 0
-10 -4 -10 -10z"/>
<path d="M2789 783 c-11 -3 -15 -12 -11 -28 4 -25 26 -33 37 -15 3 6 1 10 -4
10 -6 0 -11 5 -11 11 0 6 7 8 16 5 14 -5 15 -4 4 9 -7 8 -13 14 -14 14 0 -1
-8 -3 -17 -6z"/>
<path d="M3271 758 c-11 -29 -6 -38 24 -38 27 0 36 17 23 43 -12 24 -37 21
-47 -5z"/>
<path d="M3006 731 c-4 -7 -5 -15 -2 -18 9 -9 19 4 14 18 -4 11 -6 11 -12 0z"/>
<path d="M3366 703 c-3 -3 -6 -15 -6 -25 0 -14 6 -19 22 -16 12 2 23 8 25 15
5 13 -31 36 -41 26z"/>
<path d="M3165 560 c-8 -13 4 -32 16 -25 12 8 12 35 0 35 -6 0 -13 -4 -16 -10z"/>
</g>
</svg>
